<svg width="28" height="28" viewBox="0 0 28 28" fill="none" xmlns="http://www.w3.org/2000/svg">
<path d="M23.9162 14.5833C23.9187 15.6554 23.7044 16.717 23.2862 17.7042C23.2791 17.7323 23.2694 17.7596 23.2571 17.7858C23.2104 17.9025 23.1579 18.0192 23.1054 18.1358C23.0712 18.2068 23.0232 18.2703 22.9641 18.3224C22.9049 18.3745 22.836 18.4142 22.7612 18.4392C22.7028 18.4578 22.6418 18.4677 22.5804 18.4683C22.4846 18.468 22.3905 18.4439 22.3062 18.3983C22.0382 18.2586 21.7482 18.1658 21.4487 18.1242C21.2977 18.0999 21.1622 18.0171 21.0716 17.8938C20.981 17.7705 20.9426 17.6164 20.9646 17.465C20.9892 17.2833 21.0009 17.1 20.9996 16.9167C21.0003 16.2019 20.8132 15.4996 20.4571 14.8799C20.101 14.2602 19.5882 13.745 18.9703 13.3858C18.3524 13.0266 17.651 12.8361 16.9362 12.8334C16.2215 12.8306 15.5186 13.0156 14.8979 13.37C14.7746 13.4428 14.6285 13.467 14.4883 13.4378C14.3481 13.4087 14.2237 13.3284 14.1396 13.2125C13.6534 12.5497 13.0173 12.0113 12.2833 11.6413C11.5493 11.2712 10.7382 11.08 9.91625 11.0833C9.74281 11.0842 9.56952 11.0939 9.39708 11.1125C9.28905 11.121 9.18076 11.0996 9.08416 11.0504C8.98757 11.0013 8.90643 10.9264 8.8497 10.8341C8.79298 10.7418 8.76287 10.6356 8.7627 10.5272C8.76253 10.4188 8.79231 10.3125 8.84875 10.22C8.93625 10.0858 9.02375 9.95167 9.11708 9.82334C9.16785 9.75056 9.22237 9.68046 9.28041 9.61334C10.3194 8.26199 11.7553 7.26975 13.3868 6.7758C15.0182 6.28186 16.7634 6.31098 18.3775 6.85908C19.9915 7.40718 21.3936 8.44677 22.3869 9.83203C23.3802 11.2173 23.915 12.8787 23.9162 14.5833Z" fill="#FFC239"/>
<path d="M20.8362 8.20163C20.5202 10.028 19.9012 11.7886 19.0046 13.4108C18.3854 13.0399 17.6785 12.8407 16.9568 12.8335C16.235 12.8263 15.5244 13.0115 14.8979 13.37C14.7746 13.4427 14.6285 13.4669 14.4883 13.4378C14.3481 13.4087 14.2237 13.3283 14.1396 13.2125C13.6534 12.5497 13.0173 12.0113 12.2833 11.6412C11.5493 11.2712 10.7382 11.08 9.91625 11.0833C9.74281 11.0841 9.56952 11.0939 9.39708 11.1125C9.28905 11.121 9.18076 11.0995 9.08416 11.0504C8.98757 11.0013 8.90643 10.9264 8.8497 10.8341C8.79298 10.7417 8.76287 10.6355 8.7627 10.5272C8.76253 10.4188 8.79231 10.3125 8.84875 10.22C9.46092 9.24954 10.271 8.41924 11.2261 7.78335C12.1811 7.14746 13.2596 6.7203 14.3911 6.5298C15.5226 6.33929 16.6815 6.38974 17.7921 6.67783C18.9027 6.96592 19.9401 7.48517 20.8362 8.20163Z" fill="#FFE266"/>
<path d="M23.2862 17.7041C23.2791 17.7322 23.2694 17.7595 23.2571 17.7858C23.2104 17.9024 23.1579 18.0191 23.1054 18.1358C23.0712 18.2068 23.0232 18.2702 22.9641 18.3223C22.9049 18.3744 22.836 18.4141 22.7612 18.4391C22.7028 18.4577 22.6418 18.4676 22.5804 18.4683C22.4846 18.4679 22.3905 18.4438 22.3062 18.3983C22.0382 18.2585 21.7482 18.1658 21.4487 18.1241C21.2977 18.0998 21.1622 18.017 21.0716 17.8937C20.981 17.7704 20.9426 17.6164 20.9646 17.4649C20.9892 17.2832 21.0009 17.1 20.9996 16.9166C21.0003 16.2019 20.8132 15.4995 20.4571 14.8798C20.101 14.2601 19.5882 13.7449 18.9703 13.3857C18.3524 13.0266 17.651 12.836 16.9362 12.8333C16.2215 12.8305 15.5186 13.0156 14.8979 13.3699C14.7746 13.4427 14.6285 13.4669 14.4883 13.4378C14.3481 13.4086 14.2237 13.3283 14.1396 13.2124C13.6534 12.5496 13.0173 12.0112 12.2833 11.6412C11.5493 11.2711 10.7382 11.08 9.91625 11.0833C9.74281 11.0841 9.56952 11.0938 9.39708 11.1124C9.28905 11.121 9.18076 11.0995 9.08416 11.0504C8.98757 11.0012 8.90643 10.9264 8.8497 10.834C8.79298 10.7417 8.76287 10.6355 8.7627 10.5271C8.76253 10.4187 8.79231 10.3124 8.84875 10.2199C8.93625 10.0858 9.02375 9.95159 9.11708 9.82326C9.16785 9.75047 9.22237 9.68038 9.28041 9.61326C9.36791 9.60742 9.45541 9.60742 9.54291 9.60742C10.5724 9.60744 11.5875 9.84921 12.5065 10.3132C13.4254 10.7773 14.2226 11.4506 14.8337 12.2791C15.6233 11.8185 16.5214 11.5768 17.4354 11.5791C18.8308 11.5794 20.1689 12.1339 21.1556 13.1206C22.1423 14.1072 22.6968 15.4454 22.6971 16.8408C22.6995 17.0788 22.6839 17.3167 22.6504 17.5524C22.8657 17.5878 23.0782 17.6385 23.2862 17.7041Z" fill="#FFC239"/>
<path d="M24.4998 20.9999C24.4984 21.9278 24.1293 22.8172 23.4732 23.4733C22.8171 24.1294 21.9277 24.4985 20.9998 24.4999H4.6665C3.73847 24.4992 2.84867 24.1302 2.19245 23.474C1.53623 22.8178 1.16725 21.928 1.1665 20.9999C1.16693 20.1521 1.47538 19.3333 2.03445 18.6959C2.59352 18.0585 3.36512 17.6459 4.20567 17.5349C3.9314 16.2319 4.11121 14.8742 4.71521 13.6875C5.31922 12.5008 6.31106 11.5564 7.52597 11.0113C8.74088 10.4662 10.1057 10.3531 11.3938 10.691C12.6818 11.0288 13.8155 11.7971 14.6065 12.8683C15.3081 12.461 16.1053 12.2476 16.9165 12.2499C17.5294 12.2498 18.1363 12.3704 18.7026 12.6048C19.2688 12.8393 19.7833 13.183 20.2167 13.6164C20.6501 14.0498 20.9938 14.5643 21.2283 15.1305C21.4627 15.6968 21.5833 16.3037 21.5832 16.9166C21.5845 17.1273 21.5708 17.3378 21.5423 17.5466C22.366 17.6752 23.1166 18.0939 23.6589 18.7271C24.2011 19.3602 24.4994 20.1663 24.4998 20.9999Z" fill="#E6E6E6"/>
<path d="M18.0385 12.3841C17.8039 15.01 16.8621 17.5233 15.3131 19.6567C13.7642 21.79 11.6661 23.4638 9.24184 24.4999H4.68018C3.75215 24.4992 2.86234 24.1302 2.20612 23.474C1.5499 22.8178 1.18092 21.928 1.18018 20.9999C1.1806 20.1521 1.48905 19.3333 2.04812 18.6959C2.60719 18.0585 3.37879 17.6459 4.21934 17.5349C3.94508 16.2319 4.12488 14.8742 4.72888 13.6875C5.33289 12.5008 6.32473 11.5564 7.53964 11.0113C8.75455 10.4662 10.1194 10.3531 11.4074 10.691C12.6955 11.0288 13.8292 11.7971 14.6202 12.8683C15.6546 12.2723 16.8793 12.0988 18.0385 12.3841Z" fill="#F2F2F2"/>
<path d="M26.833 15.1667H25.6663C25.5116 15.1667 25.3633 15.1052 25.2539 14.9958C25.1445 14.8864 25.083 14.738 25.083 14.5833C25.083 14.4286 25.1445 14.2803 25.2539 14.1709C25.3633 14.0615 25.5116 14 25.6663 14H26.833C26.9877 14 27.1361 14.0615 27.2455 14.1709C27.3549 14.2803 27.4163 14.4286 27.4163 14.5833C27.4163 14.738 27.3549 14.8864 27.2455 14.9958C27.1361 15.1052 26.9877 15.1667 26.833 15.1667Z" fill="#FFC239"/>
<path d="M22.7619 8.15435C22.6466 8.15432 22.5338 8.1201 22.4379 8.056C22.342 7.9919 22.2672 7.90081 22.2231 7.79423C22.179 7.68766 22.1674 7.57039 22.1899 7.45725C22.2124 7.34411 22.2679 7.24018 22.3495 7.1586L23.1743 6.33371C23.2282 6.27841 23.2926 6.23437 23.3637 6.20414C23.4347 6.17391 23.5111 6.15809 23.5883 6.1576C23.6655 6.15712 23.7421 6.17196 23.8135 6.20129C23.885 6.23062 23.9499 6.27384 24.0045 6.32845C24.0591 6.38305 24.1023 6.44796 24.1316 6.5194C24.161 6.59084 24.1758 6.6674 24.1753 6.74462C24.1748 6.82185 24.159 6.89821 24.1288 6.96927C24.0986 7.04033 24.0545 7.10469 23.9992 7.1586L23.1743 7.98343C23.1202 8.03769 23.056 8.08072 22.9852 8.11005C22.9144 8.13938 22.8385 8.15444 22.7619 8.15435Z" fill="#FFC239"/>
<path d="M15.7498 5.24996C15.5951 5.24996 15.4468 5.1885 15.3374 5.0791C15.228 4.96971 15.1665 4.82134 15.1665 4.66663V3.49996C15.1665 3.34525 15.228 3.19688 15.3374 3.08748C15.4468 2.97808 15.5951 2.91663 15.7498 2.91663C15.9045 2.91663 16.0529 2.97808 16.1623 3.08748C16.2717 3.19688 16.3332 3.34525 16.3332 3.49996V4.66663C16.3332 4.82134 16.2717 4.96971 16.1623 5.0791C16.0529 5.1885 15.9045 5.24996 15.7498 5.24996Z" fill="#FFC239"/>
<path d="M8.73764 8.15435C8.66103 8.15444 8.58515 8.13938 8.51437 8.11005C8.4436 8.08072 8.37932 8.03769 8.32523 7.98343L7.50033 7.1586C7.44504 7.10469 7.401 7.04033 7.37077 6.96927C7.34054 6.89821 7.32472 6.82185 7.32423 6.74462C7.32374 6.6674 7.33859 6.59084 7.36792 6.5194C7.39724 6.44796 7.44047 6.38305 7.49507 6.32845C7.54968 6.27384 7.61459 6.23062 7.68603 6.20129C7.75747 6.17196 7.83402 6.15712 7.91125 6.1576C7.98847 6.15809 8.06483 6.17391 8.1359 6.20414C8.20696 6.23437 8.27131 6.27841 8.32523 6.33371L9.15006 7.1586C9.23161 7.24018 9.28715 7.34411 9.30965 7.45725C9.33215 7.57039 9.32059 7.68766 9.27645 7.79423C9.23231 7.90081 9.15756 7.9919 9.06166 8.056C8.96575 8.1201 8.853 8.15432 8.73764 8.15435Z" fill="#FFC239"/>
</svg>
