<svg width="20" height="20" viewBox="0 0 20 20" fill="none" xmlns="http://www.w3.org/2000/svg">
<path d="M2 9.11096C2 13.5554 5.55556 17.111 10 17.111C14.3889 17.111 18 13.5554 18 9.11096V10.8887C18 15.3332 14.4444 18.8887 10 18.8887C5.61111 18.8887 2 15.3332 2 10.8887V9.11096Z" fill="#FFB961"/>
<path d="M2 9.11096C2 13.5554 5.55556 17.111 10 17.111C14.3889 17.111 18 13.5554 18 9.11096V10.8887C18 15.3332 14.4444 18.8887 10 18.8887C5.61111 18.8887 2 15.3332 2 10.8887V9.11096Z" fill="#F3A250"/>
<g opacity="0.6">
<path d="M10.0002 17.111C8.38911 17.111 6.83355 16.611 5.61133 15.7776V17.5554C6.88911 18.3887 8.38911 18.8887 10.0002 18.8887C14.3891 18.8887 18.0002 15.3332 18.0002 10.8887V9.11096C18.0002 13.4999 14.3891 17.111 10.0002 17.111Z" fill="#EF7B56"/>
</g>
<path d="M11.3887 16.9443V18.7221C15.1109 18.0554 17.9998 14.7776 17.9998 10.8332V9.05542C17.9998 13.0554 15.1665 16.2776 11.3887 16.9443Z" fill="#F3A250"/>
<g opacity="0.6">
<path d="M15.8892 14.4999V16.2776C17.2225 14.8332 18.0003 12.9443 18.0003 10.8887V9.11096C18.0003 11.1665 17.1669 13.0554 15.8892 14.4999Z" fill="#EF7B56"/>
</g>
<path d="M18 9.11108C18 13.5555 14.4444 17.1111 9.99999 17.1111C5.99999 17.1111 2.72222 14.2222 2.11111 10.3889C1.33333 5.61108 4.99999 1.11108 9.99999 1.11108C13.3889 1.11108 16.3333 3.2222 17.4444 6.27775C17.8333 7.11108 18 8.11108 18 9.11108Z" fill="#F9CF6B"/>
<g opacity="0.4">
<path d="M3.94434 13.1665C5.55545 15.111 7.77767 16.111 9.99989 16.111C12.2221 16.111 14.4443 15.111 16.0554 13.111C14.9443 15.111 12.7221 16.5554 9.99989 16.611C7.33322 16.611 5.05545 15.111 3.94434 13.1665Z" fill="white"/>
</g>
<g opacity="0.2">
<path d="M16.7777 6.16656C15.3888 3.49989 12.7777 1.94434 9.99995 1.94434C7.22217 1.94434 4.61106 3.49989 3.22217 6.111C4.11106 3.55545 6.77772 1.49989 9.99995 1.44434C13.2222 1.49989 15.8333 3.55545 16.7777 6.16656Z" fill="white"/>
</g>
<g opacity="0.4">
<path d="M3.94434 13.1665C5.55545 15.111 7.77767 16.111 9.99989 16.111C12.2221 16.111 14.4443 15.111 16.0554 13.111C14.9443 15.111 12.7221 16.5554 9.99989 16.611C7.33322 16.611 5.05545 15.111 3.94434 13.1665Z" fill="white"/>
</g>
<path d="M16.0554 9.11098C16.0554 12.4443 13.3332 15.1665 9.99989 15.1665C6.66656 15.1665 3.94434 12.4443 3.94434 9.11098C3.94434 5.77764 6.66656 3.05542 9.99989 3.05542C13.3332 3.05542 16.0554 5.77764 16.0554 9.11098Z" fill="#F3A250"/>
<path d="M11.9998 9.99984L12.3332 12.1109C12.3887 12.4443 12.0554 12.6665 11.7776 12.5554L9.88872 11.5554C9.77761 11.4998 9.61095 11.4998 9.49984 11.5554L7.61095 12.5554C7.33317 12.7221 6.99984 12.4443 7.05539 12.1109L7.38873 9.99984C7.38873 9.88873 7.38873 9.72206 7.27761 9.6665L5.72206 8.1665C5.49984 7.94428 5.61095 7.55539 5.94428 7.49984L8.05539 7.1665C8.1665 7.1665 8.27761 7.05539 8.33317 6.94428L9.33317 4.99984C9.49984 4.72206 9.88873 4.72206 10.0554 4.99984L10.9998 6.94428C11.0554 7.05539 11.1665 7.1665 11.2776 7.1665L13.3887 7.49984C13.7221 7.55539 13.8332 7.94428 13.6109 8.1665L12.0554 9.6665C11.9998 9.72206 11.9443 9.88873 11.9998 9.99984Z" fill="#EF7B56"/>
<path d="M15.4445 11.7221C17.0556 7.88875 14.2222 3.55542 10 3.55542C5.83336 3.55542 2.94447 7.77764 4.50003 11.6665C2.66669 7.66653 5.55558 3.05542 10 3.05542C14.5 3.05542 17.3889 7.77764 15.4445 11.7221Z" fill="#EF7B56"/>
<path d="M12.3333 10.3332L12.6667 12.4443C12.7222 12.7777 12.3889 12.9999 12.1111 12.8888L10.2222 11.8888C10.1111 11.8332 9.94444 11.8332 9.83333 11.8888L7.94444 12.8888C7.66667 13.0554 7.33333 12.7777 7.38889 12.4443L7.72222 10.3332C7.72222 10.2221 7.72222 10.0554 7.61111 9.99988L6.05555 8.49988C5.83333 8.27766 5.94444 7.88877 6.27778 7.83321L8.38889 7.49988C8.5 7.49988 8.61111 7.38877 8.66667 7.27766L9.61111 5.33321C9.77778 5.05543 10.1667 5.05543 10.3333 5.33321L11.2778 7.27766C11.3333 7.38877 11.4444 7.49988 11.5556 7.49988L13.6667 7.83321C14 7.88877 14.1111 8.27766 13.8889 8.49988L12.4444 9.99988C12.3333 10.0554 12.2778 10.2221 12.3333 10.3332Z" fill="#F9CF6B"/>
<g opacity="0.5">
<path d="M6.44423 8.55533C6.222 8.3331 6.33312 7.99977 6.66645 7.94421L8.55534 7.66644C8.66645 7.66644 8.77756 7.55533 8.83311 7.49977L9.66645 5.77755C9.77756 5.49977 10.1664 5.49977 10.2776 5.77755L11.1109 7.49977C11.1664 7.61088 11.2776 7.66644 11.3887 7.66644L13.2776 7.94421C13.5553 7.99977 13.6664 8.3331 13.4998 8.55533C13.4998 8.55533 12.2776 9.88866 9.88867 9.88866C8.05534 9.88866 6.44423 8.55533 6.44423 8.55533Z" fill="white"/>
</g>
<g opacity="0.7">
<path d="M10.0558 6.94429C9.8891 7.33318 9.61132 7.61096 9.50021 7.55541C9.3891 7.49985 9.33354 7.11096 9.50021 6.72207C9.66687 6.33318 9.94465 6.0554 10.0558 6.11096C10.1669 6.16652 10.2224 6.55541 10.0558 6.94429Z" fill="white"/>
</g>
<path d="M6.94423 5.16648C6.77756 5.16648 6.66645 5.22203 6.55534 5.27759C6.61089 5.33314 7.05534 5.77759 6.99978 5.83314C6.94423 5.8887 6.49978 5.44425 6.44423 5.3887C6.38867 5.49981 6.33312 5.61092 6.33312 5.77759C6.33312 6.3887 6.27756 6.77759 6.16645 6.77759C6.11089 6.77759 6.05534 6.3887 5.99978 5.77759C5.99978 5.61092 5.94423 5.49981 5.88867 5.3887C5.83312 5.44425 5.38867 5.8887 5.33312 5.83314C5.27756 5.77759 5.72201 5.33314 5.77756 5.27759C5.66645 5.22203 5.55534 5.16648 5.38867 5.16648C4.05534 5.11092 4.05534 4.94425 5.38867 4.8887C5.49978 4.8887 5.66645 4.83314 5.77756 4.77759C5.72201 4.72203 5.27756 4.27759 5.33312 4.22203C5.38867 4.16648 5.83312 4.61092 5.88867 4.66648C5.94423 4.55537 5.99978 4.44425 5.99978 4.27759C6.05534 2.94425 6.22201 2.94425 6.27756 4.27759C6.27756 4.3887 6.33312 4.55537 6.38867 4.66648C6.44423 4.61092 6.88867 4.16648 6.94423 4.22203C6.99978 4.27759 6.83312 4.49981 6.55534 4.77759V4.83314C6.66645 4.8887 6.77756 4.94425 6.94423 4.94425C7.55534 4.94425 7.94423 4.99981 7.94423 5.11092C7.94423 5.11092 7.55534 5.16648 6.94423 5.16648Z" fill="white"/>
<g opacity="0.2">
<path d="M16.7777 6.16656C15.3888 3.49989 12.7777 1.94434 9.99995 1.94434C7.22217 1.94434 4.61106 3.49989 3.22217 6.111C4.11106 3.55545 6.77772 1.49989 9.99995 1.44434C13.2222 1.49989 15.8333 3.55545 16.7777 6.16656Z" fill="white"/>
</g>
</svg>
